<svg width="338" height="220" viewBox="0 0 338 220" fill="none" xmlns="http://www.w3.org/2000/svg">
<g clip-path="url(#clip0_747_267)">
<path d="M103.758 205.793C106.045 200.854 108.33 195.841 109.322 190.489C110.315 185.137 109.898 179.329 107.056 174.687C104.213 170.045 98.6163 166.897 93.2752 167.946C88.8884 168.808 85.366 172.263 83.3035 176.23C81.241 180.196 80.4134 184.67 79.6113 189.068C79.3521 184.071 79.0775 178.994 77.4177 174.274C75.7579 169.555 72.4895 165.156 67.8315 163.33C63.1735 161.503 57.1141 162.939 54.659 167.299C51.2003 173.441 55.7865 182.056 51.8094 187.876C51.1272 182.038 45.0226 177.426 39.2207 178.365C33.4188 179.304 29.0802 185.605 30.2737 191.36C30.9839 194.785 33.3202 197.697 36.1135 199.802C38.9068 201.906 42.1555 204.345 45.3692 205.724L103.758 205.793Z" fill="#F8ECEC"/>
<path d="M33.3199 182.489C37.9285 184.1 42.5796 185.729 46.7871 188.248C50.558 190.505 53.916 193.544 56.0367 197.436C57.1987 199.524 57.8885 201.841 58.0577 204.225C58.0884 204.723 58.8682 204.727 58.8374 204.225C58.5648 199.786 56.4017 195.724 53.4064 192.512C50.1224 188.99 45.8668 186.585 41.473 184.718C38.8678 183.612 36.1979 182.671 33.5272 181.738C33.0525 181.572 32.8485 182.325 33.3199 182.489Z" fill="#F8ECEC"/>
<path d="M59.9031 164.104C62.7346 168.821 65.0021 173.854 66.6588 179.101C68.3188 184.345 69.3645 189.765 69.7748 195.251C70.0019 198.321 70.0266 201.404 69.849 204.478C69.8201 204.979 70.5998 204.978 70.6286 204.478C70.9432 198.935 70.6078 193.375 69.6292 187.911C68.6521 182.447 67.0464 177.115 64.8438 172.02C63.6075 169.158 62.1818 166.382 60.5764 163.71C60.5224 163.625 60.4372 163.563 60.339 163.539C60.2407 163.515 60.137 163.531 60.0496 163.582C59.9623 163.633 59.8982 163.716 59.8709 163.813C59.8436 163.91 59.8551 164.015 59.9031 164.104Z" fill="#F8ECEC"/>
<path d="M98.0631 168.582C94.058 177.581 91.2395 187.062 89.6785 196.787C89.2402 199.519 88.9009 202.264 88.6606 205.023C88.617 205.522 89.397 205.52 89.4403 205.023C90.2893 195.319 92.3865 185.766 95.68 176.599C96.6055 174.021 97.6242 171.48 98.7363 168.976C98.9381 168.521 98.2665 168.124 98.0631 168.582Z" fill="#F8ECEC"/>
<path d="M236.342 216.414L236.279 211.573L213.46 211.868L213.523 216.709L236.342 216.414Z" fill="#F8ECEC"/>
<path d="M244.451 217.494L241.192 217.484L239.177 213.89L241.355 210.308L244.383 210.317C243.624 209.352 242.583 208.649 241.405 208.306C240.227 207.963 238.971 207.997 237.814 208.404C236.656 208.811 235.655 209.57 234.95 210.574C234.245 211.579 233.873 212.778 233.884 214.005C233.896 215.232 234.291 216.425 235.015 217.416C235.738 218.407 236.754 219.146 237.919 219.531C239.084 219.916 240.34 219.926 241.512 219.561C242.683 219.195 243.711 218.473 244.451 217.494Z" fill="#F8ECEC"/>
<path d="M205.351 217.494L208.61 217.484L210.625 213.89L208.447 210.308L205.419 210.317C206.178 209.352 207.219 208.649 208.397 208.306C209.575 207.963 210.831 207.997 211.988 208.404C213.146 208.811 214.147 209.57 214.852 210.574C215.557 211.579 215.929 212.778 215.918 214.005C215.906 215.232 215.511 216.425 214.787 217.416C214.064 218.407 213.048 219.146 211.883 219.531C210.718 219.916 209.462 219.926 208.29 219.561C207.119 219.195 206.091 218.473 205.351 217.494Z" fill="#F8ECEC"/>
<path d="M337.51 206.214H0.489855C0.359937 206.214 0.235341 206.162 0.143475 206.071C0.0516092 205.979 0 205.854 0 205.724C0 205.594 0.0516092 205.47 0.143475 205.378C0.235341 205.286 0.359937 205.234 0.489855 205.234H337.51C337.64 205.234 337.765 205.286 337.857 205.378C337.948 205.47 338 205.594 338 205.724C338 205.854 337.948 205.979 337.857 206.071C337.765 206.162 337.64 206.214 337.51 206.214Z" fill="#15171F"/>
<path d="M264.76 113.141C273.688 113.141 280.925 105.904 280.925 96.9763C280.925 88.0484 273.688 80.811 264.76 80.811C255.832 80.811 248.595 88.0484 248.595 96.9763C248.595 105.904 255.832 113.141 264.76 113.141Z" fill="#15171F"/>
<path d="M271.311 187.725L272.556 193.6L295.809 191.594L293.972 182.923L271.311 187.725Z" fill="#EEA2B1"/>
<path d="M269.501 206.087L265.589 187.622L272.723 186.111L275.124 197.441C275.525 199.333 275.157 201.307 274.103 202.928C273.049 204.55 271.393 205.686 269.501 206.087Z" fill="#15171F"/>
<path d="M256.743 187.412L254.126 192.817L232.031 185.295L235.894 177.317L256.743 187.412Z" fill="#EEA2B1"/>
<path d="M250.712 195.93L255.759 185.506L262.323 188.684L254.098 205.672C253.236 205.254 252.464 204.671 251.828 203.956C251.191 203.24 250.702 202.407 250.387 201.502C250.073 200.597 249.94 199.64 249.995 198.684C250.051 197.728 250.295 196.792 250.712 195.93Z" fill="#15171F"/>
<path d="M213.214 176.736C213.97 176.877 214.748 176.85 215.493 176.658C216.238 176.465 216.932 176.112 217.525 175.623C218.119 175.133 218.598 174.52 218.928 173.825C219.259 173.13 219.434 172.372 219.439 171.602L255.872 138.012L246.824 131.005L213.839 166.247C212.546 166.323 211.325 166.87 210.409 167.786C209.493 168.701 208.944 169.921 208.867 171.214C208.79 172.507 209.19 173.783 209.991 174.801C210.792 175.819 211.939 176.507 213.214 176.736Z" fill="#EEA2B1"/>
<path d="M262.731 113.871C269.376 113.871 274.762 108.485 274.762 101.84C274.762 95.1952 269.376 89.8086 262.731 89.8086C256.086 89.8086 250.7 95.1952 250.7 101.84C250.7 108.485 256.086 113.871 262.731 113.871Z" fill="#EEA2B1"/>
<path d="M273.528 172.563C265.089 172.563 254.925 170.785 248.654 163.512L248.513 163.348L248.658 163.187C248.706 163.135 253.319 157.863 248.713 148.462L242.38 150.41L236.075 142.088L239.568 131.61L253.86 120.097C255.908 118.456 258.402 117.468 261.018 117.261C265.752 116.803 270.363 115.49 274.628 113.385C276.58 112.437 278.729 111.967 280.898 112.014L281.179 112.022C281.839 112.04 282.488 112.193 283.087 112.47C283.686 112.747 284.222 113.142 284.664 113.633C285.106 114.123 285.443 114.698 285.656 115.323C285.868 115.948 285.952 116.609 285.902 117.267C284.932 129.822 283.221 160.151 288.249 170.593L288.379 170.863L288.088 170.937C283.31 172.012 278.427 172.557 273.528 172.563Z" fill="#D4163C"/>
<path d="M250.309 163.352C250.309 163.352 218.469 160.412 215.04 169.72C211.611 179.027 215.53 183.436 221.408 185.395C227.286 187.354 241.492 189.804 241.492 189.804L247.86 181.966L264.515 182.946C264.515 182.946 283.073 193.709 288.204 205.221C289.305 207.713 291.061 209.859 293.284 211.432C295.507 213.005 298.116 213.947 300.831 214.156C304.945 214.442 308.602 212.888 308.602 206.459C308.602 191.763 288.028 170.699 288.028 170.699L250.309 163.352Z" fill="#15171F"/>
<path d="M226.061 177.802C226.061 177.802 234.389 175.353 247.615 181.721L226.061 177.802Z" fill="#15171F"/>
<path d="M250.729 94.1672C255.427 97.0354 260.725 98.7808 266.208 99.2675L264.576 97.3125C265.764 97.7518 267.014 98 268.28 98.048C268.914 98.0664 269.543 97.9359 270.117 97.6672C270.691 97.3984 271.195 96.9988 271.586 96.5005C271.906 95.9829 272.096 95.3957 272.14 94.7888C272.184 94.1819 272.081 93.5734 271.839 93.0151C271.342 91.9017 270.568 90.934 269.591 90.2041C267.859 88.8343 265.815 87.9141 263.642 87.5257C261.468 87.1372 259.232 87.2925 257.133 87.9777C255.694 88.408 254.404 89.2352 253.413 90.3644C252.925 90.9333 252.587 91.6142 252.428 92.3461C252.268 93.0781 252.293 93.8381 252.5 94.558" fill="#15171F"/>
<path d="M264.673 84.551C266.811 79.5874 270.011 75.1528 274.047 71.5593C276.64 69.2557 279.667 67.2765 283.083 66.6791C286.5 66.0816 290.35 67.1051 292.445 69.8686C294.158 72.1283 294.479 75.1555 294.29 77.985C294.101 80.8145 293.469 83.6166 293.529 86.4518C293.591 89.3446 294.375 92.1763 295.808 94.6896C297.242 97.2029 299.281 99.3184 301.739 100.844C304.198 102.369 306.999 103.257 309.887 103.425C312.776 103.594 315.661 103.038 318.28 101.809C315.331 103.44 313.032 106.021 310.293 107.985C307.555 109.95 303.944 111.297 300.833 109.999C297.542 108.625 296.033 104.895 294.854 101.529L289.597 86.5203C288.703 83.9689 287.765 81.3418 285.942 79.3462C284.118 77.3506 281.158 76.1343 278.648 77.1376C276.745 77.8979 275.507 79.713 274.42 81.4502C273.334 83.1875 272.188 85.0359 270.353 85.9468C268.518 86.8577 265.798 86.2969 265.198 84.3378" fill="#15171F"/>
<path d="M264.338 157.338L260.96 160.805L277.304 176.732L280.683 173.265L264.338 157.338Z" fill="#F8ECEC"/>
<path d="M277.508 173.55C276.84 174.236 276.39 175.105 276.215 176.046C276.04 176.987 276.149 177.959 276.527 178.839C276.905 179.719 277.535 180.467 278.338 180.988C279.141 181.51 280.08 181.782 281.037 181.769C281.995 181.757 282.927 181.461 283.716 180.919C284.505 180.377 285.116 179.613 285.471 178.723C285.826 177.834 285.909 176.86 285.71 175.923C285.511 174.986 285.039 174.13 284.353 173.462C283.434 172.566 282.196 172.072 280.912 172.088C279.628 172.105 278.404 172.631 277.508 173.55ZM282.461 178.377C282.174 178.671 281.807 178.873 281.406 178.958C281.005 179.043 280.587 179.008 280.206 178.856C279.825 178.704 279.497 178.442 279.265 178.104C279.033 177.765 278.906 177.366 278.9 176.956C278.895 176.545 279.011 176.143 279.235 175.799C279.459 175.454 279.779 175.184 280.156 175.022C280.533 174.861 280.95 174.814 281.353 174.889C281.757 174.964 282.129 175.157 282.423 175.443C282.817 175.827 283.042 176.352 283.049 176.902C283.056 177.452 282.845 177.983 282.461 178.377Z" fill="#F8ECEC"/>
<path d="M259.368 150.84L261.666 153.151L260.549 157.117L256.476 158.11L254.342 155.963C254.196 157.181 254.435 158.415 255.025 159.49C255.616 160.566 256.528 161.43 257.634 161.961C258.74 162.492 259.985 162.663 261.193 162.451C262.402 162.239 263.514 161.654 264.373 160.778C265.232 159.903 265.796 158.78 265.985 157.568C266.174 156.355 265.979 155.114 265.427 154.018C264.875 152.922 263.994 152.027 262.908 151.457C261.821 150.887 260.584 150.671 259.368 150.84Z" fill="#F8ECEC"/>
<path d="M268.801 172.605C268.594 172.605 268.386 172.593 268.18 172.57C266.971 172.43 265.844 171.885 264.983 171.024C264.123 170.164 263.578 169.037 263.438 167.828C263.352 167.073 263.426 166.309 263.656 165.586C263.886 164.862 264.266 164.195 264.772 163.628C265.277 163.062 265.897 162.609 266.59 162.298C267.283 161.988 268.033 161.827 268.793 161.827C269.033 161.828 269.273 161.846 269.511 161.881L285.959 144.371L284.242 138.647L292.866 134.781L295.283 140.689C296.093 142.69 296.236 144.899 295.691 146.988C295.146 149.077 293.942 150.935 292.257 152.285L274.152 166.687C274.171 166.863 274.18 167.039 274.181 167.215C274.18 167.973 274.02 168.722 273.711 169.414C273.402 170.106 272.95 170.725 272.386 171.231C271.404 172.119 270.125 172.608 268.801 172.605Z" fill="#EEA2B1"/>
<path d="M281.66 114.366C282.23 114.112 282.846 113.977 283.47 113.967C284.094 113.958 284.713 114.074 285.291 114.31C285.869 114.546 286.393 114.897 286.832 115.34C287.271 115.784 287.616 116.312 287.846 116.892L296.356 138.369L283.129 147.186L281.66 114.366Z" fill="#D4163C"/>
<path d="M219.693 119.381V12.3749C219.689 9.09427 218.383 5.94937 216.064 3.62964C213.744 1.30991 210.599 0.00464176 207.318 0H39.1658C35.8852 0.00464306 32.7403 1.30991 30.4206 3.62964C28.1009 5.94937 26.7956 9.09427 26.791 12.3749V119.381C26.7956 122.662 28.1009 125.807 30.4206 128.126C32.7403 130.446 35.8852 131.751 39.1658 131.756H207.318C210.599 131.751 213.744 130.446 216.064 128.126C218.383 125.807 219.689 122.662 219.693 119.381ZM39.1658 130.3C36.271 130.297 33.4958 129.145 31.4488 127.098C29.4019 125.051 28.2503 122.276 28.2468 119.381V12.3749C28.2503 9.48005 29.4019 6.7048 31.4488 4.65785C33.4958 2.61091 36.271 1.45938 39.1658 1.45586H207.318C210.213 1.45938 212.988 2.61091 215.035 4.65785C217.082 6.7048 218.234 9.48005 218.237 12.3749V119.381C218.234 122.276 217.082 125.051 215.035 127.098C212.988 129.145 210.213 130.297 207.318 130.3H39.1658Z" fill="#15171F"/>
<path d="M218.237 19.2527H28.2468C28.0537 19.2527 27.8686 19.176 27.7321 19.0395C27.5956 18.903 27.5189 18.7179 27.5189 18.5248C27.5189 18.3317 27.5956 18.1466 27.7321 18.0101C27.8686 17.8736 28.0537 17.7969 28.2468 17.7969H218.237C218.43 17.7969 218.616 17.8736 218.752 18.0101C218.889 18.1466 218.965 18.3317 218.965 18.5248C218.965 18.7179 218.889 18.903 218.752 19.0395C218.616 19.176 218.43 19.2527 218.237 19.2527Z" fill="#15171F"/>
<path d="M40.6217 13.8306C42.6318 13.8306 44.2613 12.2011 44.2613 10.1909C44.2613 8.1808 42.6318 6.55127 40.6217 6.55127C38.6115 6.55127 36.982 8.1808 36.982 10.1909C36.982 12.2011 38.6115 13.8306 40.6217 13.8306Z" fill="#D4163C"/>
<path d="M52.9965 13.8306C55.0067 13.8306 56.6362 12.2011 56.6362 10.1909C56.6362 8.1808 55.0067 6.55127 52.9965 6.55127C50.9864 6.55127 49.3569 8.1808 49.3569 10.1909C49.3569 12.2011 50.9864 13.8306 52.9965 13.8306Z" fill="#D4163C"/>
<path d="M65.3714 13.8306C67.3816 13.8306 69.0111 12.2011 69.0111 10.1909C69.0111 8.1808 67.3816 6.55127 65.3714 6.55127C63.3613 6.55127 61.7318 8.1808 61.7318 10.1909C61.7318 12.2011 63.3613 13.8306 65.3714 13.8306Z" fill="#D4163C"/>
<path d="M92.5722 97.5946C92.5078 97.5946 92.4441 97.582 92.3847 97.5574C92.3253 97.5327 92.2712 97.4967 92.2258 97.4512C92.1803 97.4057 92.1442 97.3517 92.1196 97.2922C92.095 97.2328 92.0823 97.1691 92.0823 97.1048C92.0823 91.9972 89.8433 89.1484 86.2308 86.2069C86.1808 86.1664 86.1392 86.1163 86.1085 86.0597C86.0778 86.003 86.0585 85.9409 86.0519 85.8768C86.0452 85.8127 86.0513 85.7479 86.0697 85.6862C86.0881 85.6244 86.1186 85.5669 86.1592 85.517C86.1999 85.467 86.2501 85.4256 86.3068 85.395C86.3635 85.3644 86.4257 85.3454 86.4899 85.3389C86.554 85.3324 86.6187 85.3387 86.6804 85.3573C86.7421 85.3759 86.7995 85.4064 86.8494 85.4473C90.685 88.5701 93.062 91.6097 93.062 97.1048C93.062 97.1691 93.0494 97.2328 93.0248 97.2922C93.0002 97.3517 92.9641 97.4057 92.9186 97.4512C92.8731 97.4967 92.8191 97.5327 92.7596 97.5574C92.7002 97.582 92.6365 97.5946 92.5722 97.5946Z" fill="#15171F"/>
<path d="M50.6102 97.5946C50.5458 97.5946 50.4821 97.582 50.4227 97.5574C50.3632 97.5327 50.3092 97.4967 50.2637 97.4512C50.2182 97.4057 50.1822 97.3517 50.1576 97.2922C50.1329 97.2328 50.1203 97.1691 50.1203 97.1048C50.1203 91.6097 52.4973 88.5701 56.3329 85.4473C56.3828 85.4064 56.4402 85.3759 56.5019 85.3573C56.5636 85.3387 56.6284 85.3324 56.6925 85.3389C56.7566 85.3454 56.8188 85.3644 56.8755 85.395C56.9323 85.4256 56.9824 85.467 57.0231 85.517C57.0638 85.5669 57.0942 85.6244 57.1126 85.6862C57.131 85.7479 57.1371 85.8127 57.1305 85.8768C57.1238 85.9409 57.1046 86.003 57.0739 86.0597C57.0431 86.1163 57.0016 86.1664 56.9515 86.2069C53.339 89.1484 51.1 91.9976 51.1 97.1048C51.1 97.1691 51.0874 97.2328 51.0628 97.2922C51.0381 97.3517 51.0021 97.4057 50.9566 97.4512C50.9111 97.4967 50.8571 97.5327 50.7976 97.5574C50.7382 97.582 50.6745 97.5946 50.6102 97.5946Z" fill="#15171F"/>
<path d="M88.3764 64.0249C88.2752 64.0249 88.1765 63.9937 88.0939 63.9354C88.0112 63.8771 87.9486 63.7946 87.9147 63.6993C87.8808 63.604 87.8772 63.5005 87.9045 63.4031C87.9317 63.3057 87.9884 63.2191 88.0669 63.1552C91.7802 60.1321 92.0823 55.8375 92.0823 50.9464C92.0823 50.8165 92.134 50.6919 92.2258 50.6C92.3177 50.5082 92.4423 50.4565 92.5722 50.4565C92.7021 50.4565 92.8267 50.5082 92.9186 50.6C93.0104 50.6919 93.0621 50.8165 93.0621 50.9464C93.0621 56.0923 92.7327 60.6198 88.6854 63.9149C88.5982 63.9862 88.489 64.0251 88.3764 64.0249Z" fill="#15171F"/>
<path d="M54.8062 63.7628C54.6936 63.763 54.5844 63.7241 54.4972 63.6527C50.4497 60.3575 50.1203 55.9488 50.1203 50.9464C50.1203 50.8165 50.1719 50.6919 50.2638 50.6C50.3556 50.5082 50.4802 50.4565 50.6102 50.4565C50.7401 50.4565 50.8647 50.5082 50.9565 50.6C51.0484 50.6919 51.1 50.8165 51.1 50.9464C51.1 55.8629 51.3956 59.8645 55.1157 62.8931C55.1942 62.957 55.2509 63.0435 55.2781 63.141C55.3054 63.2384 55.3018 63.3418 55.2679 63.4371C55.234 63.5324 55.1714 63.6149 55.0887 63.6732C55.0061 63.7315 54.9074 63.7628 54.8062 63.7628Z" fill="#15171F"/>
<path d="M98.8666 74.5324H88.3761C88.2462 74.5324 88.1216 74.4808 88.0297 74.389C87.9378 74.2971 87.8862 74.1725 87.8862 74.0426C87.8862 73.9127 87.9378 73.7881 88.0297 73.6962C88.1216 73.6044 88.2462 73.5527 88.3761 73.5527H98.8666C98.9965 73.5527 99.1211 73.6044 99.213 73.6962C99.3048 73.7881 99.3564 73.9127 99.3564 74.0426C99.3564 74.1725 99.3048 74.2971 99.213 74.389C99.1211 74.4808 98.9965 74.5324 98.8666 74.5324Z" fill="#15171F"/>
<path d="M54.8064 74.5324H44.3159C44.186 74.5324 44.0614 74.4808 43.9695 74.389C43.8777 74.2971 43.826 74.1725 43.826 74.0426C43.826 73.9127 43.8777 73.7881 43.9695 73.6962C44.0614 73.6044 44.186 73.5527 44.3159 73.5527H54.8064C54.9363 73.5527 55.0609 73.6044 55.1528 73.6962C55.2447 73.7881 55.2963 73.9127 55.2963 74.0426C55.2963 74.1725 55.2447 74.2971 55.1528 74.389C55.0609 74.4808 54.9363 74.5324 54.8064 74.5324Z" fill="#15171F"/>
<path d="M71.5912 95.4966C71.5268 95.4966 71.4631 95.484 71.4037 95.4594C71.3443 95.4348 71.2902 95.3987 71.2448 95.3532C71.1993 95.3077 71.1632 95.2537 71.1386 95.1942C71.114 95.1348 71.1013 95.0711 71.1013 95.0068V61.4371C71.1013 61.3072 71.1529 61.1826 71.2448 61.0907C71.3367 60.9989 71.4613 60.9473 71.5912 60.9473C71.7211 60.9473 71.8457 60.9989 71.9376 61.0907C72.0294 61.1826 72.081 61.3072 72.081 61.4371V95.0068C72.081 95.0711 72.0684 95.1348 72.0438 95.1942C72.0192 95.2537 71.9831 95.3077 71.9376 95.3532C71.8921 95.3987 71.8381 95.4348 71.7787 95.4594C71.7192 95.484 71.6555 95.4966 71.5912 95.4966Z" fill="#15171F"/>
<path d="M71.5911 95.4965C67.0112 95.4912 62.6204 93.6695 59.3819 90.431C56.1434 87.1924 54.3218 82.8016 54.3166 78.2217V65.6239C54.3166 57.5569 60.9359 52.5454 71.5912 52.5454C82.7311 52.5454 88.866 57.1902 88.866 65.6239V78.2217C88.8608 82.8016 87.0391 87.1925 83.8005 90.4311C80.562 93.6696 76.1711 95.4913 71.5911 95.4965ZM71.5911 53.5251C63.7138 53.5251 55.2963 56.7034 55.2963 65.6239V78.2217C55.2951 80.3623 55.7157 82.4822 56.5341 84.4602C57.3525 86.4383 58.5526 88.2357 60.0658 89.7497C61.5791 91.2638 63.3758 92.4649 65.3534 93.2843C67.331 94.1038 69.4506 94.5256 71.5913 94.5256C73.7319 94.5256 75.8516 94.1038 77.8291 93.2843C79.8067 92.4649 81.6035 91.2638 83.1167 89.7497C84.63 88.2357 85.8301 86.4383 86.6484 84.4602C87.4668 82.4822 87.8874 80.3623 87.8862 78.2217V65.6239C87.8862 55.0971 77.6768 53.5251 71.5911 53.5251Z" fill="#15171F"/>
<path d="M61.5508 55.5697C61.4528 55.5697 61.357 55.5403 61.2758 55.4853C61.1947 55.4303 61.1319 55.3522 61.0956 55.2611C60.8127 54.553 60.6491 53.8028 60.6115 53.0412C60.6201 50.137 61.7757 47.3539 63.8268 45.2978C65.8779 43.2418 68.6583 42.0795 71.5625 42.064H71.6187C74.5191 42.0778 77.2968 43.236 79.3478 45.2868C81.3988 47.3376 82.5574 50.1152 82.5715 53.0156C82.5462 53.7242 82.3952 54.4226 82.1257 55.0784C82.0756 55.1976 81.9805 55.2922 81.861 55.3416C81.7414 55.3909 81.6072 55.391 81.4877 55.3419C81.3681 55.2927 81.2728 55.1982 81.2226 55.079C81.1723 54.9598 81.1713 54.8256 81.2196 54.7057C81.4433 54.1626 81.5695 53.5843 81.5923 52.9974C81.575 50.3592 80.5179 47.8343 78.6504 45.9707C76.7829 44.1072 74.2557 43.0554 71.6175 43.0437H71.5637C68.9225 43.0568 66.3932 44.1119 64.5257 45.9797C62.6582 47.8474 61.6033 50.3768 61.5905 53.018C61.6252 53.6631 61.7654 54.2982 62.0055 54.898C62.0351 54.9723 62.046 55.0527 62.0373 55.1322C62.0287 55.2118 62.0007 55.2879 61.9559 55.3542C61.911 55.4204 61.8507 55.4746 61.7801 55.5122C61.7095 55.5498 61.6308 55.5695 61.5508 55.5697Z" fill="#15171F"/>
<path d="M121.342 52.9058H115.464C114.555 52.9058 113.682 52.5446 113.039 51.9015C112.396 51.2584 112.035 50.3863 112.035 49.4768C112.035 48.5674 112.396 47.6952 113.039 47.0522C113.682 46.4091 114.555 46.0479 115.464 46.0479H121.342C122.252 46.0479 123.124 46.4091 123.767 47.0522C124.41 47.6952 124.771 48.5674 124.771 49.4768C124.771 50.3863 124.41 51.2584 123.767 51.9015C123.124 52.5446 122.252 52.9058 121.342 52.9058Z" fill="#AAABB3"/>
<path d="M161.51 67.3565H155.632C154.723 67.3565 153.851 66.9952 153.207 66.3522C152.564 65.7091 152.203 64.8369 152.203 63.9275C152.203 63.0181 152.564 62.1459 153.207 61.5029C153.851 60.8598 154.723 60.4985 155.632 60.4985H161.51C162.42 60.4985 163.292 60.8598 163.935 61.5029C164.578 62.1459 164.939 63.0181 164.939 63.9275C164.939 64.8369 164.578 65.7091 163.935 66.3522C163.292 66.9952 162.42 67.3565 161.51 67.3565Z" fill="#AAABB3"/>
<path d="M180.125 67.3565H174.247C173.337 67.3565 172.465 66.9952 171.822 66.3522C171.179 65.7091 170.818 64.8369 170.818 63.9275C170.818 63.0181 171.179 62.1459 171.822 61.5029C172.465 60.8598 173.337 60.4985 174.247 60.4985H180.125C181.034 60.4985 181.906 60.8598 182.549 61.5029C183.193 62.1459 183.554 63.0181 183.554 63.9275C183.554 64.8369 183.193 65.7091 182.549 66.3522C181.906 66.9952 181.034 67.3565 180.125 67.3565Z" fill="#AAABB3"/>
<path d="M198.739 67.3565H192.861C191.952 67.3565 191.079 66.9952 190.436 66.3522C189.793 65.7091 189.432 64.8369 189.432 63.9275C189.432 63.0181 189.793 62.1459 190.436 61.5029C191.079 60.8598 191.952 60.4985 192.861 60.4985H198.739C199.649 60.4985 200.521 60.8598 201.164 61.5029C201.807 62.1459 202.168 63.0181 202.168 63.9275C202.168 64.8369 201.807 65.7091 201.164 66.3522C200.521 66.9952 199.649 67.3565 198.739 67.3565Z" fill="#AAABB3"/>
<path d="M162 53.1505H134.568C133.659 53.1505 132.787 52.7892 132.144 52.1461C131.501 51.5031 131.139 50.6309 131.139 49.7215C131.139 48.812 131.501 47.9399 132.144 47.2968C132.787 46.6538 133.659 46.2925 134.568 46.2925H162C162.91 46.2925 163.782 46.6538 164.425 47.2968C165.068 47.9399 165.429 48.812 165.429 49.7215C165.429 50.6309 165.068 51.5031 164.425 52.1461C163.782 52.7892 162.91 53.1505 162 53.1505Z" fill="#AAABB3"/>
<path d="M142.896 66.8668H115.464C114.555 66.8668 113.682 66.5055 113.039 65.8624C112.396 65.2194 112.035 64.3472 112.035 63.4378C112.035 62.5284 112.396 61.6562 113.039 61.0131C113.682 60.3701 114.555 60.0088 115.464 60.0088H142.896C143.805 60.0088 144.677 60.3701 145.321 61.0131C145.964 61.6562 146.325 62.5284 146.325 63.4378C146.325 64.3472 145.964 65.2194 145.321 65.8624C144.677 66.5055 143.805 66.8668 142.896 66.8668Z" fill="#AAABB3"/>
<path d="M196.78 53.1505H175.716C174.807 53.1505 173.935 52.7892 173.291 52.1461C172.648 51.5031 172.287 50.6309 172.287 49.7215C172.287 48.812 172.648 47.9399 173.291 47.2968C173.935 46.6538 174.807 46.2925 175.716 46.2925H196.78C197.689 46.2925 198.562 46.6538 199.205 47.2968C199.848 47.9399 200.209 48.812 200.209 49.7215C200.209 50.6309 199.848 51.5031 199.205 52.1461C198.562 52.7892 197.689 53.1505 196.78 53.1505Z" fill="#AAABB3"/>
<path d="M121.342 81.8072H115.464C114.555 81.8072 113.682 81.4459 113.039 80.8029C112.396 80.1598 112.035 79.2876 112.035 78.3782C112.035 77.4688 112.396 76.5966 113.039 75.9536C113.682 75.3105 114.555 74.9492 115.464 74.9492H121.342C122.252 74.9492 123.124 75.3105 123.767 75.9536C124.41 76.5966 124.771 77.4688 124.771 78.3782C124.771 79.2876 124.41 80.1598 123.767 80.8029C123.124 81.4459 122.252 81.8072 121.342 81.8072Z" fill="#AAABB3"/>
<path d="M162 82.0518H134.568C133.659 82.0518 132.787 81.6905 132.144 81.0475C131.501 80.4044 131.139 79.5323 131.139 78.6228C131.139 77.7134 131.501 76.8412 132.144 76.1982C132.787 75.5551 133.659 75.1938 134.568 75.1938H162C162.91 75.1938 163.782 75.5551 164.425 76.1982C165.068 76.8412 165.429 77.7134 165.429 78.6228C165.429 79.5323 165.068 80.4044 164.425 81.0475C163.782 81.6905 162.91 82.0518 162 82.0518Z" fill="#AAABB3"/>
<path d="M196.78 82.0518H175.716C174.807 82.0518 173.935 81.6905 173.291 81.0475C172.648 80.4044 172.287 79.5323 172.287 78.6228C172.287 77.7134 172.648 76.8412 173.291 76.1982C173.935 75.5551 174.807 75.1938 175.716 75.1938H196.78C197.689 75.1938 198.562 75.5551 199.205 76.1982C199.848 76.8412 200.209 77.7134 200.209 78.6228C200.209 79.5323 199.848 80.4044 199.205 81.0475C198.562 81.6905 197.689 82.0518 196.78 82.0518Z" fill="#AAABB3"/>
<path d="M187.473 93.5638C187.474 92.6546 187.835 91.7831 188.478 91.1402C189.121 90.4974 189.993 90.1358 190.902 90.1348H196.78C197.689 90.1348 198.562 90.496 199.205 91.1391C199.848 91.7822 200.209 92.6543 200.209 93.5638C200.209 94.4732 199.848 95.3453 199.205 95.9884C198.562 96.6315 197.689 96.9927 196.78 96.9927H190.902C189.993 96.9917 189.121 96.6301 188.478 95.9873C187.835 95.3444 187.474 94.4729 187.473 93.5638Z" fill="#AAABB3"/>
<path d="M146.815 93.8084C146.816 92.8993 147.177 92.0277 147.82 91.3848C148.463 90.742 149.335 90.3804 150.244 90.3794H177.676C178.585 90.3794 179.457 90.7407 180.1 91.3837C180.743 92.0268 181.105 92.899 181.105 93.8084C181.105 94.7178 180.743 95.59 180.1 96.233C179.457 96.8761 178.585 97.2374 177.676 97.2374H150.244C149.335 97.2363 148.463 96.8748 147.82 96.2319C147.177 95.5891 146.816 94.7175 146.815 93.8084Z" fill="#AAABB3"/>
<path d="M112.035 93.8084C112.036 92.8993 112.398 92.0277 113.04 91.3848C113.683 90.742 114.555 90.3804 115.464 90.3794H136.528C137.437 90.3794 138.309 90.7407 138.952 91.3837C139.595 92.0268 139.957 92.899 139.957 93.8084C139.957 94.7178 139.595 95.59 138.952 96.233C138.309 96.8761 137.437 97.2374 136.528 97.2374H115.464C114.555 97.2363 113.683 96.8748 113.04 96.2319C112.398 95.5891 112.036 94.7175 112.035 93.8084Z" fill="#AAABB3"/>
</g>
<defs>
<clipPath id="clip0_747_267">
<rect width="338" height="219.827" fill="white"/>
</clipPath>
</defs>
</svg>
