<svg width="329" height="229" viewBox="0 0 329 229" fill="none" xmlns="http://www.w3.org/2000/svg">
<g clip-path="url(#clip0_982_780)">
<path d="M65.5511 229C101.754 229 131.102 226.771 131.102 224.02C131.102 221.269 101.754 219.039 65.5511 219.039C29.3482 219.039 0 221.269 0 224.02C0 226.771 29.3482 229 65.5511 229Z" fill="#E6E6E6"/>
<path d="M50.1061 50.8109C61.5139 45.9567 75.7226 49.0323 89.5989 51.1669C89.728 48.5819 91.2932 45.4358 89.6537 43.6324C87.6618 41.4414 87.8451 39.1393 89.0438 36.8239C92.1089 30.9031 87.7174 24.6031 83.2835 19.3647C82.2841 18.1866 81.021 17.261 79.5969 16.663C78.1728 16.065 76.6278 15.8115 75.0873 15.9231L66.8737 16.51C64.8751 16.6529 62.9676 17.4029 61.4067 18.6599C59.8458 19.9169 58.7058 21.6208 58.1393 23.5437C56.1781 26.2121 55.1284 28.8732 55.7892 31.5204C52.8516 33.5288 52.3581 35.9532 53.6781 38.6862C54.7975 40.407 54.7856 42.082 53.6272 43.7107C52.1059 45.7871 50.9408 48.1024 50.1795 50.5616L50.1061 50.8109Z" fill="#15171F"/>
<path d="M321.204 197.966H88.6977C86.63 197.966 84.6471 197.145 83.185 195.682C81.723 194.219 80.9016 192.236 80.9016 190.167C165.185 180.368 247.885 180.368 329 190.167C329 192.236 328.179 194.219 326.717 195.682C325.255 197.145 323.272 197.966 321.204 197.966Z" fill="#15171F"/>
<path d="M329 190.626L80.9016 190.167L109.655 141.765L109.793 141.536V34.8633C109.793 33.5685 110.048 32.2864 110.543 31.0901C111.038 29.8939 111.764 28.8069 112.679 27.8914C113.594 26.9759 114.681 26.2496 115.877 25.7542C117.072 25.2587 118.354 25.0038 119.648 25.0039H288.878C290.172 25.0038 291.454 25.2587 292.649 25.7542C293.845 26.2496 294.931 26.9759 295.847 27.8914C296.762 28.8069 297.488 29.8939 297.983 31.0901C298.478 32.2864 298.733 33.5685 298.733 34.8633V142.27L329 190.626Z" fill="#2B2E40"/>
<path d="M119.423 31.8857C118.572 31.8867 117.756 32.2254 117.155 32.8274C116.553 33.4295 116.214 34.2458 116.213 35.0973V132.36C116.214 133.212 116.553 134.028 117.155 134.63C117.756 135.232 118.572 135.571 119.423 135.572H290.478C291.329 135.571 292.145 135.232 292.747 134.63C293.349 134.028 293.687 133.212 293.688 132.36V35.0973C293.687 34.2458 293.349 33.4295 292.747 32.8275C292.145 32.2254 291.329 31.8867 290.478 31.8857H119.423Z" fill="#CACBCF"/>
<path d="M120.14 148.418C119.877 148.418 119.62 148.494 119.398 148.636C119.177 148.778 119.001 148.98 118.89 149.219L110.03 168.488C109.934 168.698 109.892 168.928 109.908 169.159C109.924 169.389 109.997 169.612 110.122 169.806C110.246 170 110.417 170.16 110.62 170.271C110.822 170.382 111.049 170.44 111.28 170.44H297.599C297.834 170.44 298.065 170.38 298.269 170.266C298.474 170.151 298.646 169.987 298.77 169.787C298.893 169.587 298.963 169.36 298.974 169.125C298.984 168.891 298.935 168.658 298.83 168.448L289.199 149.179C289.086 148.95 288.91 148.757 288.693 148.623C288.475 148.488 288.225 148.417 287.969 148.418H120.14Z" fill="#15171F"/>
<path d="M204.263 30.2805C205.403 30.2805 206.327 29.3561 206.327 28.2159C206.327 27.0757 205.403 26.1514 204.263 26.1514C203.123 26.1514 202.199 27.0757 202.199 28.2159C202.199 29.3561 203.123 30.2805 204.263 30.2805Z" fill="#CACBCF"/>
<path d="M185.949 174.109C185.647 174.11 185.353 174.21 185.113 174.394C184.873 174.578 184.7 174.836 184.621 175.128L182.398 183.386C182.344 183.59 182.336 183.804 182.377 184.011C182.418 184.218 182.506 184.413 182.635 184.581C182.763 184.749 182.929 184.885 183.118 184.978C183.307 185.072 183.516 185.12 183.727 185.12H225.992C226.212 185.12 226.428 185.068 226.623 184.967C226.818 184.867 226.986 184.721 227.113 184.542C227.24 184.363 227.323 184.157 227.354 183.94C227.385 183.722 227.364 183.501 227.292 183.294L224.435 175.035C224.341 174.765 224.165 174.531 223.932 174.365C223.699 174.199 223.421 174.109 223.135 174.109H185.949Z" fill="#15171F"/>
<path d="M298.733 139.931V141.766H109.655L109.798 141.537V139.931H298.733Z" fill="#15171F"/>
<path d="M293.459 64.2303C311.188 64.2303 325.561 49.8518 325.561 32.1151C325.561 14.3784 311.188 0 293.459 0C275.73 0 261.358 14.3784 261.358 32.1151C261.358 49.8518 275.73 64.2303 293.459 64.2303Z" fill="#D4163C"/>
<path d="M306.758 46.1078H280.16C279.674 46.1073 279.207 45.9138 278.863 45.5697C278.519 45.2257 278.326 44.7592 278.326 44.2726V28.215C278.326 27.7285 278.52 27.262 278.863 26.918C279.207 26.5739 279.674 26.3804 280.16 26.3799H306.758C307.245 26.3804 307.711 26.5739 308.055 26.918C308.399 27.262 308.592 27.7285 308.593 28.215V44.2726C308.592 44.7592 308.399 45.2257 308.055 45.5697C307.711 45.9138 307.245 46.1073 306.758 46.1078ZM280.16 28.215V44.2726H306.76L306.758 28.215L280.16 28.215Z" fill="#CACBCF"/>
<path d="M301.714 28.2156H285.204V20.875C285.204 15.5582 288.676 11.6992 293.459 11.6992C298.242 11.6992 301.714 15.5582 301.714 20.875L301.714 28.2156ZM287.039 26.3804H299.879V20.875C299.879 16.553 297.239 13.5344 293.459 13.5344C289.679 13.5344 287.039 16.553 287.039 20.875L287.039 26.3804Z" fill="#CACBCF"/>
<path d="M293.459 37.6205C294.472 37.6205 295.293 36.7989 295.293 35.7853C295.293 34.7718 294.472 33.9502 293.459 33.9502C292.446 33.9502 291.625 34.7718 291.625 35.7853C291.625 36.7989 292.446 37.6205 293.459 37.6205Z" fill="#CACBCF"/>
<path d="M271.05 102.581H138.852C138.203 102.58 137.581 102.322 137.122 101.863C136.663 101.403 136.405 100.781 136.404 100.132V67.3251C136.405 66.6758 136.663 66.0533 137.122 65.5942C137.581 65.135 138.203 64.8767 138.852 64.876H271.05C271.699 64.8767 272.321 65.135 272.78 65.5942C273.239 66.0533 273.497 66.6758 273.498 67.3251V100.132C273.497 100.781 273.239 101.403 272.78 101.863C272.321 102.322 271.699 102.58 271.05 102.581ZM138.852 65.8556C138.463 65.8561 138.089 66.011 137.814 66.2865C137.539 66.562 137.384 66.9355 137.383 67.3251V100.132C137.384 100.521 137.539 100.895 137.814 101.17C138.089 101.446 138.463 101.601 138.852 101.601H271.05C271.439 101.601 271.812 101.446 272.088 101.17C272.363 100.895 272.518 100.521 272.518 100.132V67.3251C272.518 66.9355 272.363 66.562 272.088 66.2865C271.812 66.011 271.439 65.8561 271.05 65.8556L138.852 65.8556Z" fill="#E6E6E6"/>
<path d="M159.393 92.4462C164.9 92.4462 169.365 87.9795 169.365 82.4697C169.365 76.9598 164.9 72.4932 159.393 72.4932C153.885 72.4932 149.421 76.9598 149.421 82.4697C149.421 87.9795 153.885 92.4462 159.393 92.4462Z" fill="#E6E6E6"/>
<path d="M182.424 75.8193C182.206 75.819 181.989 75.8617 181.787 75.9451C181.585 76.0285 181.402 76.151 181.247 76.3054C181.093 76.4599 180.97 76.6433 180.886 76.8452C180.802 77.0471 180.759 77.2635 180.759 77.4821C180.759 77.7007 180.802 77.9171 180.886 78.119C180.97 78.3209 181.093 78.5043 181.247 78.6588C181.402 78.8132 181.585 78.9356 181.787 79.019C181.989 79.1024 182.206 79.1452 182.424 79.1448H260.777C261.218 79.1448 261.641 78.9696 261.953 78.6578C262.264 78.346 262.439 77.9231 262.439 77.4821C262.439 77.0411 262.264 76.6182 261.953 76.3063C261.641 75.9945 261.218 75.8193 260.777 75.8193H182.424Z" fill="#E6E6E6"/>
<path d="M182.424 85.7959C181.983 85.7959 181.561 85.9711 181.249 86.2829C180.937 86.5947 180.762 87.0177 180.762 87.4586C180.762 87.8996 180.937 88.3226 181.249 88.6344C181.561 88.9462 181.983 89.1214 182.424 89.1214H216.14C216.581 89.1214 217.003 88.9462 217.315 88.6344C217.627 88.3226 217.802 87.8996 217.802 87.4586C217.802 87.0177 217.627 86.5947 217.315 86.2829C217.003 85.9711 216.581 85.7959 216.14 85.7959H182.424Z" fill="#E6E6E6"/>
<path d="M109.33 86.4677L84.8923 99.4654L84.583 88.634C92.5593 87.3019 100.148 84.9826 107.165 81.2067L109.721 74.8895C109.999 74.2012 110.452 73.5971 111.034 73.1366C111.616 72.6761 112.308 72.375 113.042 72.2629C113.776 72.1508 114.526 72.2316 115.22 72.4972C115.913 72.7628 116.525 73.2042 116.996 73.7781C117.685 74.6176 118.03 75.6879 117.96 76.7722C117.89 77.8564 117.411 78.8735 116.619 79.6174L109.33 86.4677Z" fill="#EEA2B1"/>
<path d="M49.6189 161.512C49.4407 160.858 49.4028 160.173 49.5079 159.504C49.6129 158.834 49.8585 158.194 50.2285 157.626L55.5968 149.384C56.8665 147.434 58.8148 146.026 61.0636 145.433C63.3125 144.839 65.7015 145.102 67.7673 146.171C65.5112 150.013 65.8257 153.384 68.5465 156.313C64.3228 158.376 60.4191 161.038 56.9564 164.218C56.3242 164.649 55.5982 164.922 54.8389 165.016C54.0796 165.11 53.3089 165.02 52.591 164.756C51.8731 164.491 51.2289 164.059 50.7119 163.494C50.1949 162.93 49.8202 162.25 49.6189 161.512Z" fill="#15171F"/>
<path d="M110.443 150.736C109.631 152.09 108.484 153.213 107.113 153.996C105.742 154.78 104.193 155.198 102.614 155.21L66.9507 155.48L65.4041 146.505L81.1803 141.863L67.8787 131.651L82.4176 114.63L108.825 139.253C110.368 140.692 111.371 142.618 111.666 144.708C111.96 146.798 111.529 148.926 110.443 150.736Z" fill="#15171F"/>
<path d="M61.3827 212.113H53.0305C45.5315 160.688 37.8983 109.12 60.4546 89.8721L87.0577 94.2047L83.655 116.796L68.8068 133.817L61.3827 212.113Z" fill="#15171F"/>
<path d="M68.7245 223.762C68.0707 223.941 67.3865 223.979 66.717 223.873C66.0475 223.768 65.4078 223.523 64.8399 223.153L55.7713 221.933C53.8226 220.663 52.4149 218.714 51.8215 216.464C51.2281 214.214 51.4911 211.824 52.5597 209.758C56.4001 212.015 59.7691 211.7 62.6967 208.978C64.7652 213.156 68.1735 212.901 71.4285 216.422C71.8595 217.054 72.1332 217.78 72.2268 218.54C72.3204 219.3 72.2312 220.071 71.9667 220.789C71.7021 221.507 71.2699 222.151 70.7059 222.669C70.142 223.186 69.4627 223.561 68.7245 223.762Z" fill="#15171F"/>
<path d="M81.1803 55.5214L65.7134 51.8078C68.2822 46.5474 68.4937 40.6941 67.2601 34.4774L77.7775 34.168C78.1071 41.8986 79.1041 49.1209 81.1803 55.5214Z" fill="#EEA2B1"/>
<path d="M85.4311 103.523C74.1718 111.198 66.2162 103.785 60.1453 92.3478C60.9889 85.3492 59.6229 76.9739 57.0931 67.8735C55.968 63.8595 56.3881 59.5695 58.2703 55.8502C60.1526 52.131 63.3602 49.2529 67.26 47.7842L80.5616 53.3547C91.8561 62.5649 94.0792 72.5415 89.8417 83.0638L85.4311 103.523Z" fill="#D4163C"/>
<path d="M53.0305 63.2576L40.657 69.7565L62.62 82.7542L65.676 90.2956C65.88 90.7989 65.9793 91.3386 65.968 91.8816C65.9567 92.4246 65.835 92.9596 65.6103 93.454C65.3855 93.9485 65.0625 94.3919 64.6609 94.7573C64.2592 95.1228 63.7874 95.4026 63.2742 95.5796C62.6907 95.7809 62.0687 95.8443 61.4566 95.7649C60.8446 95.6855 60.2593 95.4654 59.7465 95.1219C59.2337 94.7784 58.8073 94.3209 58.5008 93.785C58.1942 93.2491 58.0159 92.6495 57.9796 92.0332L57.6706 86.7773L29.7559 77.5615C28.8153 77.251 27.9578 76.7305 27.2481 76.0393C26.5385 75.3481 25.9954 74.5045 25.6599 73.5722C25.1709 72.2133 25.146 70.7306 25.5891 69.356C26.0322 67.9815 26.9183 66.7926 28.1088 65.9756L50.5558 50.5693L53.0305 63.2576Z" fill="#EEA2B1"/>
<path d="M65.4041 64.4961C60.2435 62.2335 55.5509 64.6913 49.6278 66.6623L48.6998 50.2604C54.5812 47.1244 60.1887 46.2789 65.4041 48.7131L65.4041 64.4961Z" fill="#D4163C"/>
<path d="M71.5772 42.2917C77.031 42.2917 81.4522 37.8686 81.4522 32.4124C81.4522 26.9563 77.031 22.5332 71.5772 22.5332C66.1233 22.5332 61.7021 26.9563 61.7021 32.4124C61.7021 37.8686 66.1233 42.2917 71.5772 42.2917Z" fill="#EEA2B1"/>
<path d="M83.3909 31.1665C73.6137 32.1244 66.1636 30.5247 61.4022 25.9699V22.3018H82.5611L83.3909 31.1665Z" fill="#15171F"/>
</g>
<defs>
<clipPath id="clip0_982_780">
<rect width="329" height="229" fill="white"/>
</clipPath>
</defs>
</svg>
